<svg width="26" height="33" viewBox="0 0 26 33" fill="none" xmlns="http://www.w3.org/2000/svg">
<g clip-path="url(#clip0_208_4)">
<path d="M16.442 31.2037C4.5385 27.1884 0.493687 13.4262 2.06085 5.88406C2.27789 4.8395 2.98449 3.98835 3.87418 3.39956L5.48541 2.33326C6.53136 1.64105 7.94897 2.0713 8.43375 3.22809L10.341 7.77931C10.8095 8.89714 10.1839 10.1714 9.01305 10.4845L6.46504 11.1657C7.36008 18.6237 11.6617 24.1714 14.386 24.8851L17.645 22.8652C18.4683 22.3549 19.5391 22.508 20.1864 23.2286L23.1169 26.4907C23.9662 27.4362 23.7272 28.9201 22.6025 29.5122C21.7144 29.9797 20.8542 30.4151 20.0872 30.8108C18.9588 31.393 17.6451 31.6095 16.442 31.2037Z" stroke="#00D3AB" stroke-width="3"/>
<path d="M14 10.7445C15.4201 10.9156 18.7201 13.7047 18.291 17.8716" stroke="#00D3AB" stroke-width="4"/>
<path d="M15 5.65964C17.8045 6.12038 24 9.89352 23.5 18.3935" stroke="#00D3AB" stroke-width="4"/>
</g>
<defs>
<clipPath id="clip0_208_4">
<rect width="26" height="33" fill="white"/>
</clipPath>
</defs>
</svg>
