<svg width="30" height="30" viewBox="0 0 30 30" fill="none" xmlns="http://www.w3.org/2000/svg">
<g clip-path="url(#clip0_208_8)">
<path d="M15 28.5C22.4558 28.5 28.5 22.4558 28.5 15C28.5 7.54416 22.4558 1.5 15 1.5C7.54416 1.5 1.5 7.54416 1.5 15C1.5 22.4558 7.54416 28.5 15 28.5Z" stroke="#00D3AB" stroke-width="3"/>
<path d="M16 5.5C16 4.94772 15.5523 4.5 15 4.5C14.4477 4.5 14 4.94772 14 5.5H16ZM14 5.5V14H16V5.5H14Z" fill="#00D3AB"/>
<path d="M24.5 16C25.0523 16 25.5 15.5523 25.5 15C25.5 14.4477 25.0523 14 24.5 14V16ZM24.5 14H16V16H24.5V14Z" fill="#00D3AB"/>
<path d="M16 15C16 15.5523 15.5523 16 15 16C14.4477 16 14 15.5523 14 15C14 14.4477 14.4477 14 15 14C15.5523 14 16 14.4477 16 15Z" fill="#00D3AB" stroke="#00D3AB"/>
</g>
<defs>
<clipPath id="clip0_208_8">
<rect width="30" height="30" fill="white"/>
</clipPath>
</defs>
</svg>
